<svg id="Layer_1" data-name="Layer 1" xmlns="http://www.w3.org/2000/svg" viewBox="0 0 1920 1080"><defs><style>.cls-1{fill:#ed1c28;}</style></defs><title>Logo_iceaddis_red-01</title><path class="cls-1" d="M221,407c2.95-4.67,5-10.43,9.05-13.81,9.22-7.69,23.57-4.52,29.56,5.54A20.56,20.56,0,0,1,251,428.05c-10.82,5.33-23.43.42-28.08-11-.69-1.68-1.29-3.39-1.94-5.09Z"/><path class="cls-1" d="M1701,546c-2.74,5.26-5.28,10.54-11.29,13.15a18.81,18.81,0,0,1-16-34.06,18.78,18.78,0,0,1,24.75,8.17c.82,1.58,1.66,3.16,2.49,4.74Z"/><path class="cls-1" d="M1480,318c6.56,2.63,12.69,5.62,15,13.2,3.06,9.89-1.72,20.43-11,23.65-10.07,3.5-20.3-1.1-24.17-10.84s.78-20.12,10.56-24.16c1.52-.63,3-1.24,4.58-1.85Z"/><path class="cls-1" d="M1474,764c-3.63-2.24-7.85-3.88-10.75-6.83-5.8-5.93-6.21-15-1.92-22.18a18.73,18.73,0,0,1,19.79-8.37c8.3,1.81,14,7.94,14.79,16a18.42,18.42,0,0,1-11,19.4c-1.32.62-2.62,1.3-3.93,2Z"/><path class="cls-1" d="M611.87,544.46H503.12c-.77,12.31-1,24,4.1,35.11,3,6.47,9,9.24,15.51,10.57A96.42,96.42,0,0,0,560,590c8.23-1.54,11.85-5.83,13.15-14.2.41-2.63.74-5.27,1.17-8.32h37c4.18,20-6.87,39.43-27.44,46.1a130.24,130.24,0,0,1-31.18,6c-18.77,1.26-37.57.74-55.88-4.93-14.71-4.57-23.47-14.32-27.41-29-6.32-23.5-6.34-47.46-4.51-71.39.77-10,3.39-20,6.39-29.59,4.17-13.33,14.5-20.79,27.51-24.49,21.15-6,42.71-6.35,64.35-3.5a111.66,111.66,0,0,1,17.94,4.07c16.35,5,23.89,17.54,27.5,33.18C612.37,510.3,612.28,526.93,611.87,544.46Zm-37-23.49c-.94-8.18-1.35-15.8-2.8-23.21-1.28-6.52-5.65-11.28-12.5-11.88a307.33,307.33,0,0,0-34.17-1.47c-6.32.16-13.11,1.82-16.9,8.07-5.32,8.78-5.07,18.54-4.89,28.49Z"/><path class="cls-1" d="M439.28,513.37H401.5c-.36-1.95-.76-3.85-1.07-5.76-1.77-11.08-8.17-18.22-19-20.63a63.46,63.46,0,0,0-34,1.27c-5.57,1.83-9.66,5.4-10.86,11.32-1.32,6.51-2.77,13.06-3.15,19.66-1,18-1.61,35.94,2.35,53.72,2,8.93,7.73,13.48,16.39,15.23,12.24,2.48,24.41,2.82,36.66.05,7-1.59,11-5.89,12.25-12.79,1-5.86,1.69-11.8,2.55-18H441c-1.3,12.21-.23,24.52-4.67,36-4.19,10.84-13.21,16.94-23.82,20.51-24.49,8.23-49.5,7.39-74.56,3.45a79.65,79.65,0,0,1-14.35-4.06c-15.12-5.42-22.24-17.58-25.3-32.23a205.89,205.89,0,0,1-.53-83.33c5-24.92,16.53-36,41.85-40.32a172.22,172.22,0,0,1,61.62.78,71.23,71.23,0,0,1,16.53,5.39c11.24,5.26,16.25,15.4,18.58,26.87C437.86,497.78,438.29,505.29,439.28,513.37Z"/><path class="cls-1" d="M957.43,618.06H935.1V597.33c-1.89,2.69-3.24,4.84-4.81,6.81-6.57,8.25-15.63,12.44-25.59,14.41-17.56,3.48-35.14,3.28-52.37-2.09-15.16-4.72-24.4-15.52-28-30.57-7.68-32.06-8.32-64.32-.24-96.43,4.59-18.24,16.76-28.8,35.19-32.56a113.35,113.35,0,0,1,47.61.43c11.5,2.55,21.6,7.76,27.41,19.36V388.34h23.13Zm-22.37-81.81c-1.06-11.1-1.56-21.42-3.14-31.58-2.13-13.71-8.52-24.43-23.17-28.11a84.27,84.27,0,0,0-41.5-.33c-11.2,2.8-18,10.16-20.39,21.51a194,194,0,0,0,.5,80.72c2.29,10.8,9.26,17.72,20.11,20.62,11.82,3.15,23.71,2.79,35.66,1.2,16-2.12,25.82-10.85,28-27.08C932.75,560.69,933.81,548.11,935.06,536.25Z"/><path class="cls-1" d="M1133.77,618h-22.55c.31-6.69.6-13.09.91-19.74-.75.19-1.43.17-1.58.44-7,12.65-18.67,18.11-32.09,20.38a108.31,108.31,0,0,1-46.53-1.77c-16.52-4.41-26.67-15-31-31.3-7.22-27.49-7.12-55.33-3.27-83.26a100.71,100.71,0,0,1,3.9-16.46c4.88-15.44,15.65-24.91,31.16-28.71a108.61,108.61,0,0,1,52.42.21c10.84,2.67,20,8,25.73,18.63V388.24h22.85Zm-114.92-84.85c1.2,14.32,2,25.42,3.12,36.51a65.53,65.53,0,0,0,2,8.74c2.62,10.83,9.25,17.68,20.06,20.65,11.48,3.16,23.13,3.18,34.65,1.3,19.57-3.2,26-9.53,29.31-29.09a179.37,179.37,0,0,0,2.73-33.25,272.11,272.11,0,0,0-3.9-39.56c-1.89-11.19-9.38-18.47-20.48-21.57a82.15,82.15,0,0,0-42.45-.67c-10.72,2.65-18.11,9.44-20,20.55C1021.59,509.82,1020.21,523,1018.85,533.16Z"/><path class="cls-1" d="M756.54,535.84c-1.11-14.51-1.8-29.06-3.46-43.5-1.17-10.11-7.88-15.62-17.8-17.58-15.28-3-30.47-3-45.54.94-10,2.62-20.1,9.32-19,24.38a6.59,6.59,0,0,1-.39,1.67c-1.3.09-2.6.24-3.89.24-6,0-11.92,0-17.78,0-4.72-22.53,8.81-41.72,30.86-45a207.18,207.18,0,0,1,60.7-.08c23.12,3.39,34.85,15,37.6,38.33a131.15,131.15,0,0,1,.94,15q.12,51.75,0,103.49c0,1.29-.14,2.59-.23,4.22H755.9c.5-5.54,1-10.9,1.58-17.39-2.29,2.43-3.81,4.21-5.5,5.81-8.49,8-19.12,11.44-30.27,13-16.26,2.22-32.5,2.23-48.55-2.27-19.1-5.35-31.51-20.08-31.84-39.81a135.48,135.48,0,0,1,2.49-27.69c2.67-13.79,12.1-22,25.39-25.29a143.33,143.33,0,0,1,63.38-1.13c8.81,1.76,16.86,5.13,22,13.26Zm-47.15,1.52c-10.16,1.44-20.21,2.61-30.16,4.37-6.54,1.17-10.18,6-11.94,12.13-2.6,9.14-2.5,18.36-.82,27.68,1.81,10,7.37,16,17.46,17.88a120.07,120.07,0,0,0,45.11-.06c8.49-1.63,16.48-4.52,22.08-11.51,7.26-9.06,6.66-19.39,4.14-29.93-2-8.33-6.84-14.27-15.29-15.95C729.9,540,719.66,538.86,709.39,537.36Z"/><path class="cls-1" d="M1234.16,567.4h23.56c.34,4.48.56,8.9,1,13.29,1.24,11.23,5.27,16.43,16.21,18.53a134.66,134.66,0,0,0,56.49-1c6.84-1.59,11.94-6,13-13s1.88-14.64.74-21.66c-1.84-11.34-8.71-16.25-20.25-16.77-13.8-.62-27.64-.89-41.4-2a145.8,145.8,0,0,1-23-4c-13.09-3.24-21.47-11.93-23.26-25.11-1.4-10.25-1.85-21-.26-31.18,2.68-17.12,11.69-24.53,29.82-27.22,21-3.13,42.14-4.09,63.13,0a70.24,70.24,0,0,1,18.32,6.2c13.74,7,19.44,19.18,17.26,35.22h-22.29c-.4-3.15-.77-6.1-1.16-9-1.1-8.46-4.77-12.56-13.23-13.82a185.05,185.05,0,0,0-52.29-.35c-11.17,1.51-15.23,5.85-16.45,17.2a57.1,57.1,0,0,0-.06,11.47c1.26,12.66,9,20.18,21.86,21.06,16.78,1.14,33.61,1.61,50.37,3,15.11,1.25,28.06,7.19,34.2,22.05,6.56,15.87,6.16,32.23-.24,48.17-4.38,10.93-13.75,15.83-24.51,18.47-16.5,4.06-33.31,4.51-50.14,3.5a220.1,220.1,0,0,1-27.68-3.45c-18.41-3.49-28-14.35-29.66-33.11C1233.77,578.53,1234.16,573.2,1234.16,567.4Z"/><path class="cls-1" d="M261,617.92H223.59V457.58H261Z"/><path class="cls-1" d="M1176.47,457.08c6.78,0,13.1,0,19.42,0,1,0,2,.15,3.28.26V617.94h-22.7Z"/><path class="cls-1" d="M1186.9,430.06c-11.64-.11-20.29-9.07-20.12-20.82A20.13,20.13,0,0,1,1187.62,389a20.54,20.54,0,0,1,20.29,20.94C1207.69,421.46,1198.59,430.17,1186.9,430.06Z"/><path class="cls-1" d="M1656.14,542.26a18.37,18.37,0,0,1-18.68,18.58c-10.63,0-18.67-8.42-18.49-19.29a18.41,18.41,0,0,1,19-18.33C1648.5,523.49,1656.23,531.57,1656.14,542.26Z"/><path class="cls-1" d="M1591.8,560.84a18.82,18.82,0,0,1-.13-37.63,18.82,18.82,0,1,1,.13,37.63Z"/><path class="cls-1" d="M1556.9,445a18.75,18.75,0,0,1-18.75-18.7,18.85,18.85,0,1,1,37.7.2A18.76,18.76,0,0,1,1556.9,445Z"/><path class="cls-1" d="M1496,608.87a18.65,18.65,0,0,1-18.59,18.8c-10.37.06-19.25-8.85-19-19.08a18.87,18.87,0,0,1,19.08-18.47A18.41,18.41,0,0,1,1496,608.87Z"/><path class="cls-1" d="M1546,560.84a18.82,18.82,0,1,1,18.8-18.74A19,19,0,0,1,1546,560.84Z"/><path class="cls-1" d="M1496,654.69a18.56,18.56,0,0,1-18.54,18.83A19,19,0,0,1,1458.4,655a18.75,18.75,0,0,1,18.5-18.93C1487.87,636,1496,643.89,1496,654.69Z"/><path class="cls-1" d="M1418.09,656a18.58,18.58,0,1,1-37.16-.07c0-10.85,8.13-19,18.88-18.85C1410.34,637.24,1418.14,645.32,1418.09,656Z"/><path class="cls-1" d="M1557,637.1a18.86,18.86,0,0,1,18.89,18.62,18.85,18.85,0,1,1-37.7.08A18.86,18.86,0,0,1,1557,637.1Z"/><path class="cls-1" d="M1477.68,363c10.56.13,18.43,8.23,18.34,18.89a18.83,18.83,0,0,1-18.82,18.66,19.4,19.4,0,0,1-18.8-18.86A18.77,18.77,0,0,1,1477.68,363Z"/><path class="cls-1" d="M1569.51,562.05a18.68,18.68,0,0,1,19,18.94,18.77,18.77,0,0,1-37.54-.16A18.59,18.59,0,0,1,1569.51,562.05Z"/><path class="cls-1" d="M1518.29,614a18.64,18.64,0,0,1,18.54,18.87,19.22,19.22,0,0,1-19,18.63,19,19,0,0,1-18.7-19.33A18.44,18.44,0,0,1,1518.29,614Z"/><path class="cls-1" d="M1477,492a18.78,18.78,0,0,1-18.6-18.87c.21-10.13,9-18.74,19-18.69A18.82,18.82,0,0,1,1496,473.77C1495.82,484.34,1487.68,492.14,1477,492Z"/><path class="cls-1" d="M1592.77,443.69c10.64-.08,18.74,7.7,19,18.28a18.51,18.51,0,0,1-18.35,18.95c-10.83.15-19.16-7.9-19.2-18.56A18.27,18.27,0,0,1,1592.77,443.69Z"/><path class="cls-1" d="M1574.21,619.86a18.78,18.78,0,1,1,18.61,18.8A18.6,18.6,0,0,1,1574.21,619.86Z"/><path class="cls-1" d="M1536.83,449.74a18.69,18.69,0,0,1-18.92,18.52,18.47,18.47,0,0,1-18.76-18.59,18.77,18.77,0,0,1,19.09-18.85A19,19,0,0,1,1536.83,449.74Z"/><path class="cls-1" d="M1418.09,426.18c0,10.73-7.76,18.74-18.31,18.84-10.81.1-18.9-8-18.85-18.84a18.58,18.58,0,1,1,37.16,0Z"/><path class="cls-1" d="M1477.27,446a18.59,18.59,0,1,1-.15-37.17c10.89-.07,19,8,18.9,18.77C1495.93,438.21,1488,446,1477.27,446Z"/><path class="cls-1" d="M1477.12,719.13a18.76,18.76,0,0,1-18.73-18.72,19.22,19.22,0,0,1,18.87-18.74A18.65,18.65,0,0,1,1496,700.8C1495.9,711.33,1487.76,719.22,1477.12,719.13Z"/><path class="cls-1" d="M1550.94,501.29a18.79,18.79,0,0,1,37.58-.05,18.78,18.78,0,0,1-19.07,18.87A18.54,18.54,0,0,1,1550.94,501.29Z"/><path class="cls-1" d="M1438.35,614a18.5,18.5,0,0,1,19,18.3,19,19,0,0,1-18.81,19.16,18.59,18.59,0,0,1-18.66-18.69A18.2,18.2,0,0,1,1438.35,614Z"/><path class="cls-1" d="M1438.61,430.84a18.72,18.72,0,1,1-.29,37.43,18.72,18.72,0,0,1,.29-37.43Z"/></svg>