<?xml version="1.0" encoding="utf-8"?>
<!-- Generator: Adobe Illustrator 23.0.5, SVG Export Plug-In . SVG Version: 6.00 Build 0)  -->
<svg version="1.1" id="Layer_1" xmlns="http://www.w3.org/2000/svg" xmlns:xlink="http://www.w3.org/1999/xlink" x="0px" y="0px"
	 viewBox="0 0 3734 951" style="enable-background:new 0 0 3734 951;" xml:space="preserve">
<style type="text/css">
	.st0{fill:#ED1C28;}
	.st1{fill:#FFFFFF;}
</style>
<title>Logo_iceaddis_RED_WHITE-01</title>
<path class="st0" d="M0,594c2.9-4.7,5-10.4,9.1-13.8c9.2-7.7,23.6-4.5,29.6,5.5c6,9.7,2.9,22.3-6.7,28.3c-0.6,0.4-1.2,0.7-1.9,1
	c-10.8,5.3-23.4,0.4-28.1-11c-0.7-1.7-1.3-3.4-1.9-5.1L0,594z"/>
<path class="st0" d="M390.9,731.5H282.1c-0.8,12.3-1,24,4.1,35.1c3,6.5,9,9.2,15.5,10.6c12.3,2.4,25,2.3,37.3-0.1
	c8.2-1.5,11.8-5.8,13.2-14.2c0.4-2.6,0.7-5.3,1.2-8.3h37c4.2,20-6.9,39.4-27.4,46.1c-10.1,3.3-20.6,5.3-31.2,6
	c-18.8,1.3-37.6,0.7-55.9-4.9c-14.7-4.6-23.5-14.3-27.4-29c-6.3-23.5-6.3-47.5-4.5-71.4c0.8-10,3.4-20,6.4-29.6
	c4.2-13.3,14.5-20.8,27.5-24.5c21.1-6,42.7-6.3,64.4-3.5c6.1,0.9,12.1,2.2,17.9,4.1c16.3,5,23.9,17.5,27.5,33.2
	C391.4,697.3,391.3,713.9,390.9,731.5z M353.9,708c-0.9-8.2-1.3-15.8-2.8-23.2c-1.3-6.5-5.7-11.3-12.5-11.9
	c-11.4-1.1-22.8-1.6-34.2-1.5c-6.3,0.2-13.1,1.8-16.9,8.1c-5.3,8.8-5.1,18.5-4.9,28.5H353.9z"/>
<path class="st0" d="M218.3,700.4h-37.8c-0.4-2-0.8-3.9-1.1-5.8c-1.8-11.1-8.2-18.2-19-20.6c-11.2-2.7-23-2.2-34,1.3
	c-5.6,1.8-9.7,5.4-10.9,11.3c-1.3,6.5-2.8,13.1-3.1,19.7c-1,18-1.6,35.9,2.4,53.7c2,8.9,7.7,13.5,16.4,15.2
	c12.2,2.5,24.4,2.8,36.7,0c7-1.6,11-5.9,12.3-12.8c1-5.9,1.7-11.8,2.5-18H220c-1.3,12.2-0.2,24.5-4.7,36
	c-4.2,10.8-13.2,16.9-23.8,20.5c-24.5,8.2-49.5,7.4-74.6,3.5c-4.9-0.9-9.7-2.3-14.4-4.1c-15.1-5.4-22.2-17.6-25.3-32.2
	c-5.9-27.5-6-55.8-0.5-83.3c5-24.9,16.5-36,41.9-40.3c20.4-3.4,41.3-3.2,61.6,0.8c5.7,1.1,11.3,2.9,16.5,5.4
	c11.2,5.3,16.3,15.4,18.6,26.9C216.9,684.8,217.3,692.3,218.3,700.4z"/>
<path class="st1" d="M736.4,805.1h-22.3v-20.7c-1.9,2.7-3.2,4.8-4.8,6.8c-6.6,8.3-15.6,12.4-25.6,14.4c-17.6,3.5-35.1,3.3-52.4-2.1
	c-15.2-4.7-24.4-15.5-28-30.6c-7.7-32.1-8.3-64.3-0.2-96.4c4.6-18.2,16.8-28.8,35.2-32.6c15.7-3.2,31.9-3.1,47.6,0.4
	c11.5,2.5,21.6,7.8,27.4,19.4v-88.3h23.1L736.4,805.1z M714.1,723.3c-1.1-11.1-1.6-21.4-3.1-31.6c-2.1-13.7-8.5-24.4-23.2-28.1
	c-13.6-3.6-27.9-3.7-41.5-0.3c-11.2,2.8-18,10.2-20.4,21.5c-5.5,26.6-5.3,54.1,0.5,80.7c2.3,10.8,9.3,17.7,20.1,20.6
	c11.8,3.2,23.7,2.8,35.7,1.2c16-2.1,25.8-10.8,28-27.1C711.8,747.7,712.8,735.1,714.1,723.3z"/>
<path class="st1" d="M912.8,805h-22.6c0.3-6.7,0.6-13.1,0.9-19.7c-0.8,0.2-1.4,0.2-1.6,0.4c-7,12.7-18.7,18.1-32.1,20.4
	c-15.5,2.8-31.3,2.2-46.5-1.8c-16.5-4.4-26.7-15-31-31.3c-7.2-27.5-7.1-55.3-3.3-83.3c0.8-5.6,2.1-11.1,3.9-16.5
	c4.9-15.4,15.7-24.9,31.2-28.7c17.2-4.2,35.2-4.1,52.4,0.2c10.8,2.7,20,8,25.7,18.6v-88.2h22.8L912.8,805z M797.9,720.2
	c1.2,14.3,2,25.4,3.1,36.5c0.5,3,1.1,5.9,2,8.7c2.6,10.8,9.2,17.7,20.1,20.7c11.5,3.2,23.1,3.2,34.7,1.3c19.6-3.2,26-9.5,29.3-29.1
	c1.9-11,2.9-22.1,2.7-33.3c-0.3-13.3-1.6-26.5-3.9-39.6c-1.9-11.2-9.4-18.5-20.5-21.6c-13.8-3.9-28.5-4.2-42.4-0.7
	c-10.7,2.7-18.1,9.4-20,20.5C800.6,696.8,799.2,710,797.9,720.2L797.9,720.2z"/>
<path class="st1" d="M535.5,722.8c-1.1-14.5-1.8-29.1-3.5-43.5c-1.2-10.1-7.9-15.6-17.8-17.6c-15.3-3-30.5-3-45.5,0.9
	c-10,2.6-20.1,9.3-19,24.4c-0.1,0.6-0.2,1.1-0.4,1.7c-1.3,0.1-2.6,0.2-3.9,0.2c-6,0-11.9,0-17.8,0c-4.7-22.5,8.8-41.7,30.9-45
	c20.1-3,40.6-3,60.7-0.1c23.1,3.4,34.8,15,37.6,38.3c0.6,5,0.9,10,0.9,15c0.1,34.5,0.1,69,0,103.5c0,1.3-0.1,2.6-0.2,4.2h-22.6
	c0.5-5.5,1-10.9,1.6-17.4c-2.3,2.4-3.8,4.2-5.5,5.8c-8.5,8-19.1,11.4-30.3,13c-16.3,2.2-32.5,2.2-48.5-2.3
	c-19.1-5.3-31.5-20.1-31.8-39.8c-0.1-9.3,0.7-18.6,2.5-27.7c2.7-13.8,12.1-22,25.4-25.3c20.8-5.1,42.4-5.5,63.4-1.1
	c8.8,1.8,16.9,5.1,22,13.3L535.5,722.8z M488.4,724.4c-10.2,1.4-20.2,2.6-30.2,4.4c-6.5,1.2-10.2,6-11.9,12.1
	c-2.6,9.1-2.5,18.4-0.8,27.7c1.8,10,7.4,16,17.5,17.9c14.9,2.8,30.2,2.8,45.1-0.1c8.5-1.6,16.5-4.5,22.1-11.5
	c7.3-9.1,6.7-19.4,4.1-29.9c-2-8.3-6.8-14.3-15.3-16C508.9,727,498.7,725.9,488.4,724.4L488.4,724.4z"/>
<path class="st1" d="M1013.2,754.4h23.6c0.3,4.5,0.6,8.9,1,13.3c1.2,11.2,5.3,16.4,16.2,18.5c18.7,3.7,37.9,3.3,56.5-1
	c6.8-1.6,11.9-6,13-13s1.9-14.6,0.7-21.7c-1.8-11.3-8.7-16.3-20.3-16.8c-13.8-0.6-27.6-0.9-41.4-2c-7.8-0.7-15.5-2.1-23-4
	c-13.1-3.2-21.5-11.9-23.3-25.1c-1.4-10.3-1.8-21-0.3-31.2c2.7-17.1,11.7-24.5,29.8-27.2c21-3.1,42.1-4.1,63.1,0
	c6.4,1.2,12.5,3.3,18.3,6.2c13.7,7,19.4,19.2,17.3,35.2h-22.3c-0.4-3.2-0.8-6.1-1.2-9c-1.1-8.5-4.8-12.6-13.2-13.8
	c-17.3-2.6-34.9-2.7-52.3-0.4c-11.2,1.5-15.2,5.9-16.4,17.2c-0.4,3.8-0.4,7.7-0.1,11.5c1.3,12.7,9,20.2,21.9,21.1
	c16.8,1.1,33.6,1.6,50.4,3c15.1,1.3,28.1,7.2,34.2,22c6.6,15.9,6.2,32.2-0.2,48.2c-4.4,10.9-13.8,15.8-24.5,18.5
	c-16.5,4.1-33.3,4.5-50.1,3.5c-9.3-0.6-18.5-1.7-27.7-3.5c-18.4-3.5-28-14.3-29.7-33.1C1012.8,765.5,1013.2,760.2,1013.2,754.4z"/>
<path class="st0" d="M40,804.9H2.6V644.6H40V804.9z"/>
<path class="st1" d="M955.5,644.1c6.8,0,13.1,0,19.4,0c1,0,2,0.2,3.3,0.3v160.6h-22.7L955.5,644.1z"/>
<path class="st1" d="M965.9,617.1c-11.6-0.1-20.3-9.1-20.1-20.8c-0.1-11.1,8.9-20.2,20-20.3c0.3,0,0.6,0,0.8,0
	c11.3,0.1,20.4,9.4,20.3,20.8c0,0.1,0,0.1,0,0.2C986.7,608.5,977.6,617.2,965.9,617.1z"/>
<g>
	<path class="st0" d="M1480,733c-2.7,5.3-5.3,10.5-11.3,13.2c-9.4,4.4-20.6,0.4-25-9c-4.4-9.4-0.4-20.6,9-25
		c9.1-4.4,20-0.8,24.8,8.2c0.8,1.6,1.7,3.2,2.5,4.7L1480,733z"/>
	<path class="st0" d="M1259,505c6.6,2.6,12.7,5.6,15,13.2c3.1,9.9-1.7,20.4-11,23.6c-10.1,3.5-20.3-1.1-24.2-10.8
		s0.8-20.1,10.6-24.2c1.5-0.6,3-1.2,4.6-1.9H1259z"/>
	<path class="st0" d="M1253,951c-3.6-2.2-7.8-3.9-10.8-6.8c-5.8-5.9-6.2-15-1.9-22.2c4.2-6.7,12.1-10,19.8-8.4
		c8.3,1.8,14,7.9,14.8,16c1.1,8.2-3.4,16.1-11,19.4c-1.3,0.6-2.6,1.3-3.9,2L1253,951z"/>
	<path class="st0" d="M1435.1,729.3c0.1,10.1-8,18.5-18.2,18.6c-0.2,0-0.3,0-0.5,0c-10.6,0-18.7-8.4-18.5-19.3
		c0-10.2,8.3-18.4,18.5-18.3c0.2,0,0.3,0,0.5,0C1427.5,710.5,1435.2,718.6,1435.1,729.3z"/>
	<path class="st0" d="M1370.8,747.8c-10.4-0.2-18.7-8.8-18.5-19.2c0.2-10.1,8.3-18.2,18.3-18.4c10.4-0.3,19,7.9,19.3,18.3
		s-7.9,19-18.3,19.3C1371.4,747.8,1371.1,747.8,1370.8,747.8z"/>
	<path class="st0" d="M1335.9,632c-10.3,0-18.7-8.4-18.8-18.7c0.1-10.4,8.5-18.8,18.9-18.8c10.4,0.1,18.8,8.5,18.8,19
		C1354.7,623.8,1346.2,632.1,1335.9,632z"/>
	<path class="st0" d="M1275,795.9c0.1,10.3-8.2,18.7-18.5,18.8c0,0-0.1,0-0.1,0c-10.4,0.1-19.3-8.8-19-19.1
		c0.2-10.3,8.7-18.6,19.1-18.5c10.2-0.1,18.5,8.1,18.5,18.3C1275,795.6,1275,795.7,1275,795.9z"/>
	<path class="st0" d="M1325,747.8c-10.4,0-18.8-8.4-18.8-18.8c0-10.4,8.4-18.8,18.8-18.8s18.8,8.4,18.8,18.8c0,0,0,0.1,0,0.1
		C1343.7,739.4,1335.3,747.7,1325,747.8z"/>
	<path class="st0" d="M1275,841.7c0.1,10.2-8,18.7-18.3,18.8c-0.1,0-0.2,0-0.3,0c-10.3,0-18.8-8.2-19.1-18.5
		c-0.1-10.3,8.2-18.8,18.5-18.9C1266.9,823,1275,830.9,1275,841.7z"/>
	<path class="st0" d="M1197.1,843c0,10.3-8.4,18.6-18.6,18.5c-10.3,0-18.6-8.4-18.5-18.6c0-10.8,8.1-19,18.9-18.8
		C1189.3,824.2,1197.1,832.3,1197.1,843z"/>
	<path class="st0" d="M1336,824.1c10.3,0,18.8,8.3,18.9,18.6c0,10.4-8.4,18.9-18.8,18.9c-10.4,0-18.9-8.4-18.9-18.8
		C1317.3,832.5,1325.7,824.1,1336,824.1z"/>
	<path class="st0" d="M1256.7,550c10.6,0.1,18.4,8.2,18.3,18.9c-0.1,10.3-8.5,18.7-18.8,18.7c-10.3-0.3-18.5-8.6-18.8-18.9
		c0-10.4,8.5-18.7,18.8-18.7C1256.4,550,1256.5,550,1256.7,550z"/>
	<path class="st0" d="M1348.5,749c10.3-0.2,18.8,8,19,18.4c0,0.2,0,0.4,0,0.6c0,10.4-8.5,18.7-18.8,18.7c-10.4,0-18.7-8.5-18.7-18.8
		c-0.1-10.3,8.1-18.7,18.4-18.8C1348.4,749.1,1348.5,749.1,1348.5,749z"/>
	<path class="st0" d="M1297.3,801c10.3,0.1,18.6,8.4,18.5,18.7c0,0,0,0.1,0,0.1c-0.3,10.3-8.7,18.5-19,18.6
		c-10.5-0.2-18.9-8.8-18.7-19.3c0,0,0,0,0,0c0.1-10.2,8.5-18.3,18.7-18.2C1297,801,1297.1,801,1297.3,801z"/>
	<path class="st0" d="M1256,679c-10.3-0.1-18.7-8.5-18.6-18.9c0.2-10.1,9-18.7,19-18.7c10.4,0.1,18.7,8.6,18.6,19c0,0.1,0,0.2,0,0.3
		C1274.8,671.3,1266.7,679.1,1256,679z"/>
	<path class="st0" d="M1371.8,630.7c10.6-0.1,18.7,7.7,19,18.3c0.2,10.2-7.8,18.7-18.1,18.9c-0.1,0-0.2,0-0.3,0
		c-10.8,0.2-19.2-7.9-19.2-18.6c-0.2-10.1,7.8-18.4,17.9-18.7C1371.3,630.7,1371.5,630.7,1371.8,630.7z"/>
	<path class="st0" d="M1353.2,806.9c0-10.4,8.4-18.8,18.8-18.8c10.4,0,18.8,8.4,18.8,18.8s-8.4,18.8-18.8,18.8c0,0-0.1,0-0.1,0
		c-10.3,0-18.6-8.3-18.6-18.6C1353.2,807,1353.2,806.9,1353.2,806.9z"/>
	<path class="st0" d="M1315.8,636.7c-0.1,10.3-8.5,18.6-18.9,18.5c0,0,0,0-0.1,0c-10.2,0.2-18.6-8-18.8-18.2c0-0.1,0-0.3,0-0.4
		c0-10.4,8.3-18.8,18.7-18.9c0.1,0,0.3,0,0.4,0C1307.5,618,1315.8,626.4,1315.8,636.7z"/>
	<path class="st0" d="M1197.1,613.2c0,10.7-7.8,18.7-18.3,18.8c-10.8,0.1-18.9-8-18.8-18.8c0-10.3,8.3-18.6,18.6-18.6
		C1188.8,594.6,1197.1,602.9,1197.1,613.2L1197.1,613.2z"/>
	<path class="st0" d="M1256.3,633c-10.3,0.3-18.8-7.8-19.1-18.1c-0.3-10.3,7.8-18.8,18.1-19.1c0.3,0,0.6,0,0.8,0
		c10.9-0.1,19,8,18.9,18.8C1274.9,625.2,1267,633,1256.3,633z"/>
	<path class="st0" d="M1256.1,906.1c-10.3,0-18.7-8.4-18.7-18.7c0.3-10.3,8.6-18.6,18.9-18.7c10.3-0.1,18.7,8.3,18.7,18.6
		c0,0.2,0,0.4,0,0.6C1274.9,898.3,1266.8,906.2,1256.1,906.1z"/>
	<path class="st0" d="M1329.9,688.3c0-10.4,8.4-18.8,18.8-18.8c10.4,0,18.8,8.4,18.8,18.7c0.1,10.4-8.3,18.8-18.7,18.9
		c-0.1,0-0.3,0-0.4,0c-10.2,0-18.5-8.3-18.5-18.6C1329.9,688.5,1329.9,688.4,1329.9,688.3z"/>
	<path class="st0" d="M1217.3,801c10.2-0.3,18.7,7.8,19,18c0,0.1,0,0.2,0,0.3c0.1,10.5-8.3,19.1-18.8,19.2
		c-10.3,0-18.6-8.3-18.7-18.5c0-0.1,0-0.1,0-0.2c-0.3-10,7.6-18.4,17.6-18.8C1216.8,801,1217.1,801,1217.3,801z"/>
	<path class="st0" d="M1217.6,617.8c10.3-0.1,18.8,8.1,19,18.5c0.1,10.3-8.1,18.8-18.5,19c-0.3,0-0.5,0-0.8,0
		c-10.3-0.3-18.5-8.9-18.2-19.3C1199.5,626,1207.6,618,1217.6,617.8z"/>
</g>
<image style="overflow:visible;enable-background:new    ;" width="1480" height="446" xlink:href="E2B6C70C.png"  transform="matrix(1 0 0 1 2254.04 -6.728313e-06)">
</image>
</svg>
